<?xml version="1.0" encoding="UTF-8" standalone="no"?>
<!-- Created with Inkscape (http://www.inkscape.org/) -->

<svg
   xmlns:dc="http://purl.org/dc/elements/1.1/"
   xmlns:cc="http://creativecommons.org/ns#"
   xmlns:rdf="http://www.w3.org/1999/02/22-rdf-syntax-ns#"
   xmlns:svg="http://www.w3.org/2000/svg"
   xmlns="http://www.w3.org/2000/svg"
   xmlns:sodipodi="http://sodipodi.sourceforge.net/DTD/sodipodi-0.dtd"
   xmlns:inkscape="http://www.inkscape.org/namespaces/inkscape"
   width="744.09448819"
   height="1052.3622047"
   id="svg28433"
   version="1.1"
   inkscape:version="0.48.4 r9939"
   sodipodi:docname="New document 176">
  <defs
     id="defs28435" />
  <sodipodi:namedview
     id="base"
     pagecolor="#ffffff"
     bordercolor="#666666"
     borderopacity="1.0"
     inkscape:pageopacity="0.0"
     inkscape:pageshadow="2"
     inkscape:zoom="2.8"
     inkscape:cx="184.30514"
     inkscape:cy="587.09758"
     inkscape:document-units="px"
     inkscape:current-layer="layer1"
     showgrid="false"
     inkscape:window-width="1440"
     inkscape:window-height="826"
     inkscape:window-x="0"
     inkscape:window-y="26"
     inkscape:window-maximized="1" />
  <metadata
     id="metadata28438">
    <rdf:RDF>
      <cc:Work
         rdf:about="">
        <dc:format>image/svg+xml</dc:format>
        <dc:type
           rdf:resource="http://purl.org/dc/dcmitype/StillImage" />
        <dc:title></dc:title>
      </cc:Work>
    </rdf:RDF>
  </metadata>
  <g
     inkscape:label="Layer 1"
     inkscape:groupmode="layer"
     id="layer1">
    <g
       transform="matrix(0.125,0,0,-0.125,-719.08718,671.45599)"
       id="g20325">
      <g
         id="g19741"
         transform="matrix(0.867486,0,0,0.867486,5094.6522,-1227.2709)">
        <path
           inkscape:connector-curvature="0"
           id="path3910-2"
           style="fill:#006900;fill-opacity:1;fill-rule:evenodd;stroke:none"
           d="m 1227.4866,3764.0422 c 2.8873,5.0502 8.8829,11.0832 27.0753,9.9764 0.999,1.9068 2.0194,3.8046 2.7014,5.814 1.7585,-5.8543 6.387,-2.0094 9.7766,-2.4827 0.768,-2.2477 0.807,-3.8301 0.351,-5.0137 23.3957,-4.8668 42.9249,-19.8936 70.422,-51.549 29.3337,-33.7802 62.6907,-126.56 62.6951,-126.5601 0,0 -6.9422,20.7764 -11.3176,34.3588 -4.3755,13.5911 -26.9122,78.9031 -62.0766,114.0919 -35.1741,35.1538 -57.1478,38.5812 -77.1925,38.5932 -10.7692,0.03 -19.7459,-4.7648 -24.6707,-11.2164 0.935,-1.8098 1.6612,-3.9256 2.236,-6.0124 z m -4.5487,-12.462 c -1.9295,3.6556 -2.2021,7.5712 -1.2579,11.3056 0.192,-0.157 0.369,-0.352 0.558,-0.517 2.0889,-1.9812 -1.0613,-2.4082 0.119,-4.1485 1.5436,0.643 2.7831,0.312 3.9563,-0.236 0.543,-3.6983 2.9269,-6.6419 2.9269,-6.6419 0,0 -1.7514,5.771 5.7079,8.0527 7.4289,2.2953 12.4965,-6.1235 8.7555,-11.7075 -0.4,-0.577 -0.861,-1.128 -1.3696,-1.6505 -1.4232,2.4792 -3.3095,4.7491 -5.8442,4.2749 1.4016,-1.5874 2.5784,-3.9394 3.8899,-5.8876 -4.7409,-3.122 -11.9761,-3.136 -17.4423,7.1562 l 0,0" />
        <path
           inkscape:connector-curvature="0"
           id="path3920-7"
           style="fill:#006900;fill-opacity:1;fill-rule:evenodd;stroke:none"
           d="m 1388.1006,3594.3032 c 0.01,0 -0.107,0.339 -0.304,0.796 0.1969,-0.429 0.2969,-0.717 0.304,-0.796 z m -29.7874,51.7747 c -13.3394,8.8637 -26.2919,12.6022 -40.321,9.7074 -14.0734,-2.8945 -20.2296,-5.4893 -26.4408,-7.0318 -6.2362,-1.5516 -16.005,-2.3086 -16.005,-2.3086 0,0 12.8776,-2.721 21.6302,-9.6312 8.7511,-6.9237 19.764,-18.871 30.3348,-24.6854 10.5754,-5.7911 18.898,-6.886 27.738,-6.365 8.828,0.537 14.5256,0.815 19.4943,-2.2261 4.2979,-2.6049 4.902,-3.2275 4.9919,-3.3481 -0.193,0.311 -8.8087,14.4382 -22.8934,22.6653 -14.2406,8.3219 -23.3976,12.2367 -35.6921,15.5588 -9.5633,2.5783 -13.0225,3.1291 -14.0788,3.2335 -0.251,0.03 -0.424,0.03 -0.424,0.03 -0.01,0 0.12,0.01 0.424,-0.03 2.9777,-0.221 22.6517,-1.9454 35.5947,-7.0956 14.0492,-5.5608 23.4232,-12.5787 33.4497,-23.7188 8.0807,-9.0184 10.8772,-13.9528 11.6812,-15.7334 -1.1093,2.7896 -4.9979,12.8651 -6.5689,19.4578 -1.839,7.7112 -9.5834,22.6292 -22.9148,31.5212 l 0,0"
           inkscape:transform-center-x="18.666896" />
        <path
           inkscape:connector-curvature="0"
           id="path3930-1"
           style="fill:#006900;fill-opacity:1;fill-rule:evenodd;stroke:none"
           d="m 1416.1096,3593.3739 c 0,0 -0.235,0.499 -0.517,1.2294 0.24,-0.695 0.441,-1.136 0.517,-1.2294 z m -22.2756,90.6515 c 5.4942,24.4144 16.0822,42.6247 35.0603,54.5129 19.0181,11.9226 28.7733,15.6442 37.4567,20.6147 8.7141,4.9787 20.571,14.6749 20.571,14.6749 0,2e-4 -11.6121,-16.9797 -14.0288,-34.2418 -2.4081,-17.2667 -1.9448,-42.6596 -7.6001,-60.644 -5.6899,-17.962 -13.9047,-28.1803 -24.4583,-37.142 -10.5484,-8.927 -17.2786,-14.7663 -19.611,-23.5672 -2.0419,-7.5923 -2.0511,-8.9422 -2.0251,-9.1742 -0.107,0.553 -5.6367,25.8142 1.3797,50.3208 7.0962,24.7847 13.2119,39.099 23.5055,56.1222 8.0213,13.241 11.3317,17.5969 12.414,18.86 0.247,0.301 0.443,0.493 0.443,0.493 0,0 -0.139,-0.133 -0.443,-0.493 -3.1268,-3.4639 -23.482,-26.6624 -32.546,-46.4582 -9.8571,-21.4578 -12.8661,-39.5077 -12.1583,-62.9176 0.613,-18.9124 2.7852,-27.501 3.7987,-30.3828 -1.7579,4.347 -8.2479,19.9242 -13.5937,29.0694 -6.2546,10.6921 -13.6199,35.9114 -8.1646,60.3529 l 0,0"
           inkscape:transform-center-x="-5.9371162"
           inkscape:transform-center-y="-11.278375" />
      </g>
      <g
         id="g19737"
         transform="matrix(0.83528906,0.54981105,-0.54981105,0.83528906,1957.8977,-3674.3952)">
        <path
           inkscape:transform-center-y="17.821578"
           inkscape:transform-center-x="-1.6005381"
           d="m 7467.3921,1767.7575 c -0.01,0 0.7618,0.194 1.8623,0.392 -1.0388,-0.1475 -1.7109,-0.3097 -1.8623,-0.392 z m 133.0416,6.66 c 32.7185,-14.3094 55.3648,-34.0756 66.8817,-63.8847 11.554,-29.8746 14.1263,-44.5503 18.7389,-58.0624 4.6156,-13.5574 14.9895,-32.7957 14.9895,-32.7957 0,0.01 -20.645,20.8679 -44.1761,28.9287 -23.5396,8.0499 -59.2425,14.2777 -82.9084,27.0716 -23.6251,12.8362 -35.7169,27.1131 -45.4148,44.3263 -9.6505,17.1967 -16.0092,28.2076 -27.7083,33.8588 -10.0844,4.917 -11.973,5.2955 -12.3052,5.322 0.8045,0.01 37.6939,0.9063 70.1294,-15.5609 32.8034,-16.6543 51.2023,-29.0993 72.2654,-48.1316 16.3794,-14.8242 21.5858,-20.6421 23.0624,-22.5004 0.355,-0.4265 0.5719,-0.7534 0.5719,-0.7534 0.01,0 -0.1425,0.228 -0.5719,0.7534 -4.0064,5.3189 -30.9968,40.1206 -56.2774,58.1809 -27.3943,19.6214 -51.8686,28.7255 -84.8593,34.0734 -26.6636,4.2625 -39.2852,3.5455 -43.5971,2.906 6.5664,1.2855 30.1485,6.16 44.4093,11.1733 16.6745,5.8675 54.0032,9.3571 86.77,-4.9053 l 0,0"
           style="fill:#006900;fill-opacity:1;fill-rule:evenodd;stroke:none"
           id="path4484"
           inkscape:connector-curvature="0" />
        <path
           inkscape:transform-center-x="-6.7326329"
           inkscape:transform-center-y="33.485916"
           d="m 7455.2045,1780.1609 c 0,0 0.5135,0.057 1.2366,0.1816 -0.6717,-0.1433 -1.1209,-0.1923 -1.2366,-0.1816 z m 83.238,25.9759 c 16.8628,16.1767 26.3085,33.4391 26.6516,54.3541 0.3451,20.9578 -1.393,30.5595 -1.6166,39.9003 -0.2248,9.3783 1.7979,23.5349 1.7979,23.5349 0.01,-0.01 -7.9606,-17.4843 -20.5985,-27.7506 -12.638,-10.266 -33.1677,-22.1581 -44.807,-35.3661 -11.6147,-13.2288 -15.8206,-24.7276 -17.8908,-37.4888 -2.0412,-12.7484 -3.4596,-20.9512 -9.3648,-27.0642 -5.085,-5.2944 -6.16,-5.9546 -6.3619,-6.053 0.4964,0.183 23.3665,7.9656 39.5672,25.4087 16.3877,17.6452 24.8766,29.4448 33.5172,45.9022 6.7115,12.8018 8.5977,17.5497 9.0795,19.0276 0.1252,0.3393 0.1807,0.5933 0.1807,0.5933 0.01,0 -0.035,-0.1781 -0.1807,-0.5933 -1.261,-4.1712 -9.9724,-31.6476 -21.4223,-48.4534 -12.3921,-18.2434 -25.3666,-29.3664 -44.4289,-40.1096 -15.4177,-8.6403 -23.3317,-11.0589 -26.124,-11.6369 4.3226,0.6957 19.9092,3.0273 29.8001,3.1749 11.5731,0.1587 35.2933,6.4536 52.2013,22.6199 l 0,0"
           style="fill:#006900;fill-opacity:1;fill-rule:evenodd;stroke:none"
           id="path4468-2"
           inkscape:connector-curvature="0" />
      </g>
      <g
         id="g14149"
         transform="translate(17.599348,-23.465796)">
        <g
           id="g16327"
           transform="translate(93.86303,-258.12333)">
          <g
             id="g18031">
            <text
               inkscape:export-ydpi="90"
               inkscape:export-xdpi="90"
               inkscape:export-filename="/home/geraldine/Documents/Vegeclic/DEV/happyending/images/messervices.png"
               transform="scale(1,-1)"
               sodipodi:linespacing="125%"
               id="text14145"
               y="-2223.3806"
               x="6136.2959"
               style="font-size:128px;font-style:normal;font-weight:normal;line-height:125%;letter-spacing:0px;word-spacing:0px;fill:#f47216;fill-opacity:1;stroke:none;font-family:Sans"
               xml:space="preserve"><tspan
                 style="font-size:128px;font-style:normal;font-variant:normal;font-weight:normal;font-stretch:normal;fill:#f47216;fill-opacity:1;font-family:Penguin Attack;-inkscape-font-specification:Penguin Attack"
                 y="-2223.3806"
                 x="6136.2959"
                 sodipodi:role="line"
                 id="tspan19727" /><tspan
                 style="font-size:128px;font-style:normal;font-variant:normal;font-weight:normal;font-stretch:normal;fill:#f47216;fill-opacity:1;font-family:Penguin Attack;-inkscape-font-specification:Penguin Attack"
                 y="-2063.3806"
                 x="6136.2959"
                 sodipodi:role="line"
                 id="tspan19731">d'un évènement festif</tspan></text>
            <text
               xml:space="preserve"
               style="font-size:128px;font-style:normal;font-variant:normal;font-weight:normal;font-stretch:normal;line-height:125%;letter-spacing:0px;word-spacing:0px;fill:#f47216;fill-opacity:1;stroke:none;font-family:Penguin Attack;-inkscape-font-specification:Penguin Attack"
               x="6288.8232"
               y="-2211.6477"
               id="text19733"
               sodipodi:linespacing="125%"
               transform="scale(1,-1)"><tspan
                 sodipodi:role="line"
                 id="tspan19735"
                 x="6288.8232"
                 y="-2211.6477">L'organisation</tspan></text>
          </g>
        </g>
      </g>
    </g>
  </g>
</svg>
