<?xml version="1.0" encoding="UTF-8" standalone="no"?>
<!-- Created with Inkscape (http://www.inkscape.org/) -->

<svg
   xmlns:dc="http://purl.org/dc/elements/1.1/"
   xmlns:cc="http://creativecommons.org/ns#"
   xmlns:rdf="http://www.w3.org/1999/02/22-rdf-syntax-ns#"
   xmlns:svg="http://www.w3.org/2000/svg"
   xmlns="http://www.w3.org/2000/svg"
   xmlns:sodipodi="http://sodipodi.sourceforge.net/DTD/sodipodi-0.dtd"
   xmlns:inkscape="http://www.inkscape.org/namespaces/inkscape"
   width="744.09448819"
   height="1052.3622047"
   id="svg28365"
   version="1.1"
   inkscape:version="0.48.4 r9939"
   sodipodi:docname="New document 173">
  <defs
     id="defs28367" />
  <sodipodi:namedview
     id="base"
     pagecolor="#ffffff"
     bordercolor="#666666"
     borderopacity="1.0"
     inkscape:pageopacity="0.0"
     inkscape:pageshadow="2"
     inkscape:zoom="0.35"
     inkscape:cx="375"
     inkscape:cy="520"
     inkscape:document-units="px"
     inkscape:current-layer="layer1"
     showgrid="false"
     inkscape:window-width="479"
     inkscape:window-height="454"
     inkscape:window-x="479"
     inkscape:window-y="210"
     inkscape:window-maximized="0" />
  <metadata
     id="metadata28370">
    <rdf:RDF>
      <cc:Work
         rdf:about="">
        <dc:format>image/svg+xml</dc:format>
        <dc:type
           rdf:resource="http://purl.org/dc/dcmitype/StillImage" />
        <dc:title></dc:title>
      </cc:Work>
    </rdf:RDF>
  </metadata>
  <g
     inkscape:label="Layer 1"
     inkscape:groupmode="layer"
     id="layer1">
    <g
       transform="matrix(0.125,0,0,-0.125,-781.26966,698.63254)"
       id="g21135">
      <path
         inkscape:connector-curvature="0"
         id="path4442"
         style="fill:#f47216;fill-opacity:1;fill-rule:evenodd;stroke:none"
         d="m 8656.5663,2450.2775 c 49.9399,-30.7966 112.7382,5.5702 124.3631,60.3261 9.6786,45.5756 -14.7551,96.1662 -59.8727,111.4762 -52.7724,17.9131 -99.2785,-33.4989 -83.0822,-81.0986 8.6559,-25.4444 54.3624,-52.4012 74.6309,-17.8018 -21.6508,-11.7648 -31.8501,-9.7153 -43.3511,0.7227 -9.9854,9.0588 -17.7489,21.0368 -15.0929,35.0446 1.032,5.3895 4.0476,11.5568 7.0382,15.9577 20.1724,-20.4855 16.2551,8.2871 24.1734,20.3645 12.3812,18.8987 35.3955,13.0846 52.6919,-0.3998 26.3398,-20.5319 34.5649,-63.6198 28.5619,-95.3862 -4.0723,-21.5454 -17.1694,-37.8956 -48.6816,-51.641 -12.2231,-5.3302 -32.9906,-7.6825 -56.3087,5.8822 l -5.0702,-3.4466" />
      <path
         inkscape:connector-curvature="0"
         id="path4478"
         style="fill:#f47216;fill-opacity:1;fill-rule:evenodd;stroke:none"
         d="m 7104.2512,2429.0465 c -20.3566,60.7657 -21.8135,121.6674 -8.9092,187.082 16.3811,83.1166 71.2677,131.9882 73.1001,135.5881 l 0.1424,0.065 c 11.5964,14.5617 29.2207,40.1241 40.6292,58.3765 13.8949,22.2085 22.6034,60.3837 19.1459,80.9994 -3.4575,20.6092 -21.5351,40.7457 -42.0925,45.9967 -20.5833,5.277 -27.0839,-8.8186 -23.5811,-18.6344 3.4835,-9.8546 18.3236,-8.1646 18.3236,-8.1646 0,0 -7.187,-2.7259 -13.1891,-1.5734 -5.9827,1.159 -11.4409,3.0626 -13.7071,12.6582 -2.2856,9.5697 -0.4791,16.7049 10.3402,27.4465 10.8388,10.7481 30.7487,12.6841 51.9083,-4.3057 21.1919,-17.0092 28.8515,-52.1608 13.4869,-105.2215 -4.5064,-15.6236 -12.8589,-31.2019 -22.3962,-45.4529 8.9416,10.5539 18.3819,21.1272 25.9379,28.243 20.5768,19.489 33.5393,25.8861 59.5808,33.1119 26.048,7.2065 41.4256,15.0409 57.4312,34.4911 15.9992,19.4761 25.6336,50.8011 22.2344,66.5607 -3.3928,15.7596 -16.0186,21.561 -28.6185,18.0322 -12.6128,-3.5287 -14.5294,-10.392 -14.5294,-10.392 -0.01,0 7.1547,4.6295 12.3215,-3.5352 5.1863,-8.1388 -3.1532,-21.2437 -15.5653,-15.5136 -12.4186,5.7108 -10.7287,30.1012 11.033,35.8249 21.7876,5.7108 45.3557,-13.2668 39.0882,-46.0744 -6.3194,-32.8206 -37.0551,-74.9002 -66.0556,-90.3943 -29.0264,-15.5135 -47.8615,-7.8992 -63.7441,-19.4567 -11.3568,-8.2941 -41.6781,-39.2306 -57.9622,-56.1103 7.7957,6.1575 16.3229,12.0301 25.2516,16.9445 10.0553,5.5294 23.0696,10.9358 37.0163,14.348 -0.6151,-4.3639 0.3108,-9.0323 2.3374,-11.9718 3.9172,3.2633 6.4229,8.6114 6.3776,13.5841 -0.084,0.052 -0.11,0.11 -0.1942,0.1618 25.6789,4.4741 53.2873,1.1202 71.708,-21.794 21.7229,-27.0193 17.5402,-56.0197 -0.2978,-75.2433 -1.8841,6.4035 -6.0604,12.2632 -11.2855,16.8473 -0.9648,-7.2582 -0.1943,-16.4329 2.4798,-24.8113 -5.7819,-4.2604 -12.3862,-7.6855 -19.5991,-10.0618 -33.7659,-11.1884 -50.7622,10.1913 -54.401,15.5718 1.3726,-1.4633 5.141,-4.474 15.6948,-10.2754 11.3827,-6.2741 24.5135,-1.2432 36.0969,7.8215 0.4532,-0.3691 1.0554,-0.6863 1.787,-0.9453 0.4014,0.8352 0.8158,1.6964 1.2367,2.5187 -0.2525,0.1165 -0.4791,0.2266 -0.6993,0.3302 4.7136,3.9625 9.1359,8.5337 13.0208,13.2279 3.4575,4.2022 5.8467,9.4079 7.2193,15.0409 1.0036,2.7324 0.5828,4.5194 3.095,6.423 -0.6993,0.382 -1.3597,0.628 -1.9943,0.7834 1.308,15.1704 -4.2409,31.5322 -16.2646,39.1983 -9.3754,5.9762 -20.8034,10.2495 -34.899,11.0071 0.9971,1.4568 1.6446,3.1467 1.3921,4.4676 -2.4798,1.6705 -3.859,0.369 -5.8856,0.6928 -1.1978,-2.0396 -1.1266,-3.6065 -0.764,-5.0568 -12.8006,-0.1425 -27.6732,-3.1403 -45.0709,-10.1913 -28.4371,-11.5251 -49.9917,-30.8911 -60.0081,-41.0306 -19.5603,-20.6221 -62.2938,-75.9814 -65.4664,-190.5266 -1.2043,-43.1413 6.41,-84.7676 22.2732,-124.3091 l -14.51,7.6014" />
      <text
         transform="scale(1,-1)"
         sodipodi:linespacing="125%"
         id="text20505"
         y="-2481.5039"
         x="7174.6553"
         style="font-size:224px;font-style:normal;font-variant:normal;font-weight:normal;font-stretch:normal;line-height:125%;letter-spacing:0px;word-spacing:0px;fill:#006900;fill-opacity:1;stroke:none;font-family:Penguin Attack;-inkscape-font-specification:Penguin Attack"
         xml:space="preserve"><tspan
           y="-2481.5039"
           x="7174.6553"
           id="tspan20507"
           sodipodi:role="line">Les frais à prév  ir</tspan></text>
    </g>
  </g>
</svg>
