<?xml version="1.0" encoding="UTF-8" standalone="no"?>
<!-- Created with Inkscape (http://www.inkscape.org/) -->

<svg
   xmlns:dc="http://purl.org/dc/elements/1.1/"
   xmlns:cc="http://creativecommons.org/ns#"
   xmlns:rdf="http://www.w3.org/1999/02/22-rdf-syntax-ns#"
   xmlns:svg="http://www.w3.org/2000/svg"
   xmlns="http://www.w3.org/2000/svg"
   xmlns:sodipodi="http://sodipodi.sourceforge.net/DTD/sodipodi-0.dtd"
   xmlns:inkscape="http://www.inkscape.org/namespaces/inkscape"
   width="300"
   height="54.035667"
   id="svg28245"
   version="1.1"
   inkscape:version="0.48.4 r9939"
   inkscape:export-filename="/home/geraldine/Documents/Vegeclic/DEV/happyending/images/geraldinestarke2.png"
   inkscape:export-xdpi="90"
   inkscape:export-ydpi="90"
   sodipodi:docname="New document 167">
  <defs
     id="defs28247" />
  <sodipodi:namedview
     id="base"
     pagecolor="#ffffff"
     bordercolor="#666666"
     borderopacity="1.0"
     inkscape:pageopacity="0.0"
     inkscape:pageshadow="2"
     inkscape:zoom="1.979899"
     inkscape:cx="260.33469"
     inkscape:cy="11.480823"
     inkscape:document-units="px"
     inkscape:current-layer="layer1"
     showgrid="false"
     fit-margin-top="0"
     fit-margin-left="0"
     fit-margin-right="0"
     fit-margin-bottom="0"
     inkscape:window-width="1440"
     inkscape:window-height="826"
     inkscape:window-x="0"
     inkscape:window-y="26"
     inkscape:window-maximized="1" />
  <metadata
     id="metadata28250">
    <rdf:RDF>
      <cc:Work
         rdf:about="">
        <dc:format>image/svg+xml</dc:format>
        <dc:type
           rdf:resource="http://purl.org/dc/dcmitype/StillImage" />
        <dc:title></dc:title>
      </cc:Work>
    </rdf:RDF>
  </metadata>
  <g
     inkscape:label="Layer 1"
     inkscape:groupmode="layer"
     id="layer1"
     transform="translate(84.524116,-386.27331)">
    <g
       id="g28126"
       transform="matrix(0.42992093,0,0,0.42992093,-123.85745,280.10774)"
       inkscape:export-filename="/home/geraldine/Documents/Vegeclic/DEV/happyending/images/fbcouverture.png"
       inkscape:export-xdpi="90"
       inkscape:export-ydpi="90">
      <rect
         ry="40.217255"
         rx="40.031834"
         y="253.22774"
         x="91.489693"
         height="119.4018"
         width="697.80273"
         id="rect28124"
         style="fill:#ffdd55;fill-opacity:1;stroke:none" />
      <g
         id="g27550"
         transform="matrix(2.214943,0,0,2.214943,-981.60177,-463.70847)">
        <text
           inkscape:export-ydpi="90"
           inkscape:export-xdpi="90"
           inkscape:export-filename="/home/geraldine/Documents/Vegeclic/DEV/happyending/images/lesvideos.png"
           sodipodi:linespacing="125%"
           id="text19733"
           y="354.03293"
           x="495.00781"
           style="font-size:22px;font-style:normal;font-variant:normal;font-weight:normal;font-stretch:normal;line-height:125%;letter-spacing:0px;word-spacing:0px;fill:#f47216;fill-opacity:1;stroke:none;font-family:Penguin Attack;-inkscape-font-specification:Penguin Attack"
           xml:space="preserve"><tspan
             style="font-size:20px"
             y="354.03293"
             x="495.00781"
             id="tspan19735"
             sodipodi:role="line">Geraldine Starke</tspan></text>
        <text
           sodipodi:linespacing="125%"
           id="text22301"
           y="370.46967"
           x="494.56363"
           style="font-size:16px;font-style:normal;font-variant:normal;font-weight:normal;font-stretch:normal;line-height:125%;letter-spacing:0px;word-spacing:0px;fill:#000000;fill-opacity:1;stroke:none;font-family:Penguin Attack;-inkscape-font-specification:Penguin Attack"
           xml:space="preserve"
           inkscape:export-xdpi="90"
           inkscape:export-ydpi="90"
           inkscape:export-filename="/home/geraldine/Documents/Vegeclic/DEV/happyending/images/geraldinestarke.png"><tspan
             style="font-size:20px;fill:#006900;fill-opacity:1"
             y="370.46967"
             x="494.56363"
             id="tspan22303"
             sodipodi:role="line">C  nsultante en évènementiel éthique</tspan></text>
        <g
           inkscape:export-ydpi="90"
           inkscape:export-xdpi="90"
           inkscape:export-filename="/home/geraldine/Documents/Vegeclic/DEV/happyending/images/geraldinestarke.png"
           transform="matrix(0.08889002,-0.0878838,-0.0878838,-0.08889002,41.851642,1156.7267)"
           id="g19737">
          <path
             inkscape:connector-curvature="0"
             id="path4484"
             style="fill:#006900;fill-opacity:1;fill-rule:evenodd;stroke:none"
             d="m 7467.3921,1767.7575 c -0.01,0 0.7618,0.194 1.8623,0.392 -1.0388,-0.1475 -1.7109,-0.3097 -1.8623,-0.392 z m 133.0416,6.66 c 32.7185,-14.3094 55.3648,-34.0756 66.8817,-63.8847 11.554,-29.8746 14.1263,-44.5503 18.7389,-58.0624 4.6156,-13.5574 14.9895,-32.7957 14.9895,-32.7957 0,0.01 -20.645,20.8679 -44.1761,28.9287 -23.5396,8.0499 -59.2425,14.2777 -82.9084,27.0716 -23.6251,12.8362 -35.7169,27.1131 -45.4148,44.3263 -9.6505,17.1967 -16.0092,28.2076 -27.7083,33.8588 -10.0844,4.917 -11.973,5.2955 -12.3052,5.322 0.8045,0.01 37.6939,0.9063 70.1294,-15.5609 32.8034,-16.6543 51.2023,-29.0993 72.2654,-48.1316 16.3794,-14.8242 21.5858,-20.6421 23.0624,-22.5004 0.355,-0.4265 0.5719,-0.7534 0.5719,-0.7534 0.01,0 -0.1425,0.228 -0.5719,0.7534 -4.0064,5.3189 -30.9968,40.1206 -56.2774,58.1809 -27.3943,19.6214 -51.8686,28.7255 -84.8593,34.0734 -26.6636,4.2625 -39.2852,3.5455 -43.5971,2.906 6.5664,1.2855 30.1485,6.16 44.4093,11.1733 16.6745,5.8675 54.0032,9.3571 86.77,-4.9053 l 0,0"
             inkscape:transform-center-x="-1.6005381"
             inkscape:transform-center-y="17.821578" />
          <path
             inkscape:connector-curvature="0"
             id="path4468-2"
             style="fill:#006900;fill-opacity:1;fill-rule:evenodd;stroke:none"
             d="m 7455.2045,1780.1609 c 0,0 0.5135,0.057 1.2366,0.1816 -0.6717,-0.1433 -1.1209,-0.1923 -1.2366,-0.1816 z m 83.238,25.9759 c 16.8628,16.1767 26.3085,33.4391 26.6516,54.3541 0.3451,20.9578 -1.393,30.5595 -1.6166,39.9003 -0.2248,9.3783 1.7979,23.5349 1.7979,23.5349 0.01,-0.01 -7.9606,-17.4843 -20.5985,-27.7506 -12.638,-10.266 -33.1677,-22.1581 -44.807,-35.3661 -11.6147,-13.2288 -15.8206,-24.7276 -17.8908,-37.4888 -2.0412,-12.7484 -3.4596,-20.9512 -9.3648,-27.0642 -5.085,-5.2944 -6.16,-5.9546 -6.3619,-6.053 0.4964,0.183 23.3665,7.9656 39.5672,25.4087 16.3877,17.6452 24.8766,29.4448 33.5172,45.9022 6.7115,12.8018 8.5977,17.5497 9.0795,19.0276 0.1252,0.3393 0.1807,0.5933 0.1807,0.5933 0.01,0 -0.035,-0.1781 -0.1807,-0.5933 -1.261,-4.1712 -9.9724,-31.6476 -21.4223,-48.4534 -12.3921,-18.2434 -25.3666,-29.3664 -44.4289,-40.1096 -15.4177,-8.6403 -23.3317,-11.0589 -26.124,-11.6369 4.3226,0.6957 19.9092,3.0273 29.8001,3.1749 11.5731,0.1587 35.2933,6.4536 52.2013,22.6199 l 0,0"
             inkscape:transform-center-y="33.485916"
             inkscape:transform-center-x="-6.7326329" />
        </g>
        <path
           d="m 520.38958,367.63031 c -1.75115,4.20516 -7.35779,4.75993 -10.57303,1.83603 -2.67605,-2.43336 -3.42973,-6.72987 -1.2805,-9.74029 2.51397,-3.52141 7.77603,-2.38928 8.913,1.34469 0.60826,1.99604 -1.05043,5.76716 -3.89635,4.50544 1.89791,-0.24034 2.44758,-0.83168 2.69944,-2.01109 0.21879,-1.02349 0.16503,-2.13014 -0.63757,-2.89272 -0.30964,-0.29292 -0.77895,-0.5448 -1.1668,-0.68645 -0.34298,2.20543 -1.40039,0.21452 -2.44705,-0.18784 -1.63718,-0.62976 -2.82387,0.78 -3.30286,2.41396 -0.72922,2.48848 0.70583,5.5768 2.52446,7.30701 1.23319,1.17291 2.79995,1.60969 5.40934,1.04712 1.01199,-0.21766 2.42742,-1.01088 3.28216,-2.92328 l 0.47576,-0.0126"
           style="fill:#f47216;fill-opacity:1;fill-rule:evenodd;stroke:none"
           id="path4494"
           inkscape:connector-curvature="0" />
      </g>
    </g>
  </g>
</svg>
