<?xml version="1.0" encoding="UTF-8" standalone="no"?>
<!-- Created with Inkscape (http://www.inkscape.org/) -->

<svg
   xmlns:dc="http://purl.org/dc/elements/1.1/"
   xmlns:cc="http://creativecommons.org/ns#"
   xmlns:rdf="http://www.w3.org/1999/02/22-rdf-syntax-ns#"
   xmlns:svg="http://www.w3.org/2000/svg"
   xmlns="http://www.w3.org/2000/svg"
   xmlns:sodipodi="http://sodipodi.sourceforge.net/DTD/sodipodi-0.dtd"
   xmlns:inkscape="http://www.inkscape.org/namespaces/inkscape"
   width="744.09448819"
   height="1052.3622047"
   id="svg28630"
   version="1.1"
   inkscape:version="0.48.4 r9939"
   sodipodi:docname="New document 179">
  <defs
     id="defs28632" />
  <sodipodi:namedview
     id="base"
     pagecolor="#ffffff"
     bordercolor="#666666"
     borderopacity="1.0"
     inkscape:pageopacity="0.0"
     inkscape:pageshadow="2"
     inkscape:zoom="2.8"
     inkscape:cx="368.18638"
     inkscape:cy="715.18764"
     inkscape:document-units="px"
     inkscape:current-layer="g7167"
     showgrid="false"
     inkscape:window-width="1440"
     inkscape:window-height="826"
     inkscape:window-x="0"
     inkscape:window-y="26"
     inkscape:window-maximized="1" />
  <metadata
     id="metadata28635">
    <rdf:RDF>
      <cc:Work
         rdf:about="">
        <dc:format>image/svg+xml</dc:format>
        <dc:type
           rdf:resource="http://purl.org/dc/dcmitype/StillImage" />
        <dc:title></dc:title>
      </cc:Work>
    </rdf:RDF>
  </metadata>
  <g
     inkscape:label="Layer 1"
     inkscape:groupmode="layer"
     id="layer1">
    <g
       transform="matrix(0.125,0,0,-0.125,-366.68547,791.43911)"
       id="g7167">
      <text
         transform="matrix(8,0,0,-8,0,3915.9)"
         sodipodi:linespacing="125%"
         id="text7257"
         y="81.926933"
         x="393.04187"
         style="font-size:20px;font-style:normal;font-weight:normal;line-height:125%;letter-spacing:0px;word-spacing:0px;fill:#000000;fill-opacity:1;stroke:none;font-family:Sans"
         xml:space="preserve"><tspan
           y="81.926933"
           x="393.04187"
           id="tspan7259"
           sodipodi:role="line" /></text>
      <g
         id="g10186"
         transform="matrix(0.37885507,-0.00749369,0.00749369,0.37885507,4810.9268,3126.9217)">
        <g
           id="g10190">
          <g
             id="g16582">
            <path
               transform="translate(0,3.4232999e-5)"
               inkscape:connector-curvature="0"
               id="path3852-5"
               style="fill:#006900;fill-opacity:1;fill-rule:evenodd;stroke:none"
               d="m 1757.93,2346.96 1719.41,377.76 c 183.55,40.32 363.21,-61.8 399.25,-226.94 l 234.79,-1075.66 c 36.04,-165.14 -84.63,-333.24 -268.17,-373.56 L 2123.8,670.801 c -183.54,-40.332 -363.2,61.801 -399.24,226.941 L 1489.77,1973.39 c -36.05,165.15 84.62,333.25 268.16,373.57" />
            <path
               d="m 1831.6,2373.44 1692.68,270.18 c 180.68,28.84 349.54,-79.31 375.24,-240.34 l 167.41,-1048.87 c 25.72,-161.02 -101.09,-316.37 -281.77,-345.21 L 2092.48,739.02 C 1911.8,710.18 1742.93,818.332 1717.23,979.371 L 1549.82,2028.23 c -25.71,161.03 101.1,316.38 281.78,345.21"
               style="fill:#ffffff;fill-opacity:1;fill-rule:evenodd;stroke:none"
               id="path3854-6"
               inkscape:connector-curvature="0" />
          </g>
        </g>
      </g>
      <path
         inkscape:connector-curvature="0"
         id="path3878-4"
         style="fill:#006900;fill-opacity:1;fill-rule:evenodd;stroke:none"
         d="m 6066.8698,3452.7279 c -0.01,0 0.5873,0.3444 1.4579,0.7678 -0.8284,-0.3653 -1.3511,-0.6619 -1.4579,-0.7678 z m 109.3524,37.4403 c 30.7062,-4.0886 54.3326,-15.1416 71.0787,-37.2436 16.7973,-22.141 22.4616,-33.7639 29.5441,-43.9271 7.0991,-10.1985 20.3612,-23.7513 20.3612,-23.7513 0,0 -22.2184,12.4499 -43.7689,13.5351 -21.5639,1.071 -52.8287,-2.294 -75.6244,2.7021 -22.7829,5.0415 -36.2887,14.0519 -48.5047,26.0712 -12.1695,12.0319 -20.1075,19.693 -31.2171,21.6013 -9.5863,1.6798 -11.2544,1.5445 -11.5422,1.491 0.674,0.1969 31.2198,9.7867 62.2174,3.8312 31.3448,-6.0255 49.6684,-11.9935 71.795,-22.8166 17.212,-8.4341 22.9486,-12.0407 24.6268,-13.2365 0.3999,-0.2698 0.6532,-0.4918 0.6532,-0.4918 0.01,0 -0.1691,0.1587 -0.6532,0.4918 -4.6156,3.4766 -35.466,26.0306 -60.8759,35.0257 -27.5453,9.8012 -50.1353,11.5248 -78.9323,8.0748 -23.255,-2.8345 -33.6112,-6.4581 -37.052,-8.0285 5.1643,2.6474 23.6652,12.3698 34.3571,19.9629 12.4957,8.8919 42.7849,20.7477 73.5373,16.7095 l 0,0" />
      <path
         inkscape:connector-curvature="0"
         id="path3918-4"
         style="fill:#006900;fill-opacity:1;fill-rule:evenodd;stroke:none"
         d="m 6035.5737,3452.0256 c 0,0 0.347,0.069 0.8293,0.2004 -0.4476,-0.1396 -0.7486,-0.2021 -0.8293,-0.2004 z m 55.0826,22.771 c 10.4889,12.0432 15.8685,24.3734 14.8185,38.6323 -1.041,14.2935 -2.8075,20.7215 -3.5303,27.0701 -0.7261,6.3645 -0.2117,16.131 -0.2117,16.131 0,0 -4.3591,-12.3897 -12.3325,-20.1537 -7.9767,-7.7616 -21.2257,-17.1116 -28.3469,-26.8111 -7.0991,-9.7142 -9.2583,-17.8058 -9.8891,-26.6171 -0.6099,-8.807 -1.0734,-14.4766 -4.7235,-18.9986 -3.1349,-3.9179 -3.8319,-4.433 -3.959,-4.5078 0.327,0.1501 15.4213,6.8471 25.3863,19.7114 10.0796,13.0158 15.1386,21.5695 20.0168,33.2956 3.7864,9.1308 4.7784,12.4796 5.0185,13.5122 0.061,0.242 0.078,0.4164 0.078,0.4164 0.01,0 -0.01,-0.1206 -0.078,-0.4164 -0.6038,-2.9154 -4.8603,-22.156 -11.6233,-34.2952 -7.3268,-13.1795 -15.4822,-21.5459 -27.8036,-30.0199 -9.9666,-6.8266 -15.2095,-8.9528 -17.0741,-9.5203 2.8995,0.7348 13.3724,3.2767 20.0995,3.9803 7.863,0.818 23.6296,6.5484 34.1541,18.5906 l 0,0" />
      <text
         xml:space="preserve"
         style="font-size:316.35388184px;font-style:normal;font-variant:normal;font-weight:normal;font-stretch:normal;line-height:125%;letter-spacing:0px;word-spacing:0px;fill:#006900;fill-opacity:1;stroke:none;font-family:Penguin Attack;-inkscape-font-specification:Penguin Attack"
         x="6036.9346"
         y="-2628.6165"
         id="text5792"
         sodipodi:linespacing="125%"
         transform="matrix(0.98487818,0.18970249,0.18857629,-0.97903135,0,0)"><tspan
           sodipodi:role="line"
           id="tspan5794"
           x="6036.9346"
           y="-2628.6165"
           style="font-size:158.17694092px">Happy ending</tspan></text>
      <text
         xml:space="preserve"
         style="font-size:144px;font-style:normal;font-weight:normal;line-height:125%;letter-spacing:0px;word-spacing:0px;fill:#f47216;fill-opacity:1;stroke:none;font-family:Sans"
         x="6513.439"
         y="-2530.5266"
         id="text5812"
         sodipodi:linespacing="125%"
         transform="matrix(0.98168784,0.20557498,0.20435455,-0.97585992,0,0)"
         inkscape:transform-center-y="6.0584269"><tspan
           sodipodi:role="line"
           id="tspan5814"
           x="6513.439"
           y="-2530.5266"
           style="font-size:144px;font-style:normal;font-variant:normal;font-weight:normal;font-stretch:normal;fill:#f47216;fill-opacity:1;font-family:Penguin Attack;-inkscape-font-specification:Penguin Attack" /><tspan
           id="tspan7255"
           sodipodi:role="line"
           x="6513.439"
           y="-2350.5266"
           style="font-size:144px;font-style:normal;font-variant:normal;font-weight:normal;font-stretch:normal;fill:#f47216;fill-opacity:1;font-family:Penguin Attack;-inkscape-font-specification:Penguin Attack">vous</tspan></text>
      <text
         transform="matrix(0.97743575,0.21123295,0.21123295,-0.97743575,0,0)"
         sodipodi:linespacing="125%"
         id="text7261"
         y="-2299.1299"
         x="6230.7427"
         style="font-size:160px;font-style:normal;font-weight:normal;line-height:125%;letter-spacing:0px;word-spacing:0px;fill:#f47216;fill-opacity:1;stroke:none;font-family:Sans"
         xml:space="preserve"><tspan
           style="font-size:144px;font-style:normal;font-variant:normal;font-weight:normal;font-stretch:normal;fill:#f47216;fill-opacity:1;font-family:Penguin Attack;-inkscape-font-specification:Penguin Attack"
           y="-2299.1299"
           x="6230.7427"
           id="tspan7263"
           sodipodi:role="line">pour</tspan></text>
      <g
         id="g19741"
         transform="matrix(0.867486,0,0,0.867486,4361.732,902.4862)">
        <path
           inkscape:connector-curvature="0"
           id="path3910-2"
           style="fill:#006900;fill-opacity:1;fill-rule:evenodd;stroke:none"
           d="m 1227.4866,3764.0422 c 2.8873,5.0502 8.8829,11.0832 27.0753,9.9764 0.999,1.9068 2.0194,3.8046 2.7014,5.814 1.7585,-5.8543 6.387,-2.0094 9.7766,-2.4827 0.768,-2.2477 0.807,-3.8301 0.351,-5.0137 23.3957,-4.8668 42.9249,-19.8936 70.422,-51.549 29.3337,-33.7802 62.6907,-126.56 62.6951,-126.5601 0,0 -6.9422,20.7764 -11.3176,34.3588 -4.3755,13.5911 -26.9122,78.9031 -62.0766,114.0919 -35.1741,35.1538 -57.1478,38.5812 -77.1925,38.5932 -10.7692,0.03 -19.7459,-4.7648 -24.6707,-11.2164 0.935,-1.8098 1.6612,-3.9256 2.236,-6.0124 z m -4.5487,-12.462 c -1.9295,3.6556 -2.2021,7.5712 -1.2579,11.3056 0.192,-0.157 0.369,-0.352 0.558,-0.517 2.0889,-1.9812 -1.0613,-2.4082 0.119,-4.1485 1.5436,0.643 2.7831,0.312 3.9563,-0.236 0.543,-3.6983 2.9269,-6.6419 2.9269,-6.6419 0,0 -1.7514,5.771 5.7079,8.0527 7.4289,2.2953 12.4965,-6.1235 8.7555,-11.7075 -0.4,-0.577 -0.861,-1.128 -1.3696,-1.6505 -1.4232,2.4792 -3.3095,4.7491 -5.8442,4.2749 1.4016,-1.5874 2.5784,-3.9394 3.8899,-5.8876 -4.7409,-3.122 -11.9761,-3.136 -17.4423,7.1562 l 0,0" />
        <path
           inkscape:connector-curvature="0"
           id="path3920-7"
           style="fill:#006900;fill-opacity:1;fill-rule:evenodd;stroke:none"
           d="m 1388.1006,3594.3032 c 0.01,0 -0.107,0.339 -0.304,0.796 0.1969,-0.429 0.2969,-0.717 0.304,-0.796 z m -29.7874,51.7747 c -13.3394,8.8637 -26.2919,12.6022 -40.321,9.7074 -14.0734,-2.8945 -20.2296,-5.4893 -26.4408,-7.0318 -6.2362,-1.5516 -16.005,-2.3086 -16.005,-2.3086 0,0 12.8776,-2.721 21.6302,-9.6312 8.7511,-6.9237 19.764,-18.871 30.3348,-24.6854 10.5754,-5.7911 18.898,-6.886 27.738,-6.365 8.828,0.537 14.5256,0.815 19.4943,-2.2261 4.2979,-2.6049 4.902,-3.2275 4.9919,-3.3481 -0.193,0.311 -8.8087,14.4382 -22.8934,22.6653 -14.2406,8.3219 -23.3976,12.2367 -35.6921,15.5588 -9.5633,2.5783 -13.0225,3.1291 -14.0788,3.2335 -0.251,0.03 -0.424,0.03 -0.424,0.03 -0.01,0 0.12,0.01 0.424,-0.03 2.9777,-0.221 22.6517,-1.9454 35.5947,-7.0956 14.0492,-5.5608 23.4232,-12.5787 33.4497,-23.7188 8.0807,-9.0184 10.8772,-13.9528 11.6812,-15.7334 -1.1093,2.7896 -4.9979,12.8651 -6.5689,19.4578 -1.839,7.7112 -9.5834,22.6292 -22.9148,31.5212 l 0,0"
           inkscape:transform-center-x="18.666896" />
        <path
           inkscape:connector-curvature="0"
           id="path3930-1"
           style="fill:#006900;fill-opacity:1;fill-rule:evenodd;stroke:none"
           d="m 1416.1096,3593.3739 c 0,0 -0.235,0.499 -0.517,1.2294 0.24,-0.695 0.441,-1.136 0.517,-1.2294 z m -22.2756,90.6515 c 5.4942,24.4144 16.0822,42.6247 35.0603,54.5129 19.0181,11.9226 28.7733,15.6442 37.4567,20.6147 8.7141,4.9787 20.571,14.6749 20.571,14.6749 0,2e-4 -11.6121,-16.9797 -14.0288,-34.2418 -2.4081,-17.2667 -1.9448,-42.6596 -7.6001,-60.644 -5.6899,-17.962 -13.9047,-28.1803 -24.4583,-37.142 -10.5484,-8.927 -17.2786,-14.7663 -19.611,-23.5672 -2.0419,-7.5923 -2.0511,-8.9422 -2.0251,-9.1742 -0.107,0.553 -5.6367,25.8142 1.3797,50.3208 7.0962,24.7847 13.2119,39.099 23.5055,56.1222 8.0213,13.241 11.3317,17.5969 12.414,18.86 0.247,0.301 0.443,0.493 0.443,0.493 0,0 -0.139,-0.133 -0.443,-0.493 -3.1268,-3.4639 -23.482,-26.6624 -32.546,-46.4582 -9.8571,-21.4578 -12.8661,-39.5077 -12.1583,-62.9176 0.613,-18.9124 2.7852,-27.501 3.7987,-30.3828 -1.7579,4.347 -8.2479,19.9242 -13.5937,29.0694 -6.2546,10.6921 -13.6199,35.9114 -8.1646,60.3529 l 0,0"
           inkscape:transform-center-x="-5.9371162"
           inkscape:transform-center-y="-11.278375" />
      </g>
    </g>
  </g>
</svg>
